<?xml version="1.0" standalone="yes"?>

<svg version="1.1" viewBox="0.0 0.0 204.00787401574803 391.40944881889766" fill="none" stroke="none" stroke-linecap="square" stroke-miterlimit="10" xmlns="http://www.w3.org/2000/svg" xmlns:xlink="http://www.w3.org/1999/xlink"><clipPath id="p.0"><path d="m0 0l204.00787 0l0 391.40945l-204.00787 0l0 -391.40945z" clip-rule="nonzero"></path></clipPath><g clip-path="url(#p.0)"><path fill="#000000" fill-opacity="0.0" d="m0 0l204.00787 0l0 391.40945l-204.00787 0z" fill-rule="nonzero"></path><path fill="#333333" d="m54.692913 41.738846l0 0c0 5.498928 20.841671 9.956692 46.55118 9.956692c25.70951 0 46.551178 -4.4577637 46.551178 -9.956692l0 59.740158c0 5.498932 -20.841667 9.956688 -46.551178 9.956688c-25.70951 0 -46.55118 -4.457756 -46.55118 -9.956688z" fill-rule="nonzero"></path><path fill="#848484" d="m54.692913 41.738846l0 0c0 -5.498932 20.841671 -9.956694 46.55118 -9.956694c25.70951 0 46.551178 4.457762 46.551178 9.956694l0 0c0 5.498928 -20.841667 9.956692 -46.551178 9.956692c-25.70951 0 -46.55118 -4.4577637 -46.55118 -9.956692z" fill-rule="nonzero"></path><path fill="#000000" fill-opacity="0.0" d="m147.79527 41.738846l0 0c0 5.498928 -20.841667 9.956692 -46.551178 9.956692c-25.70951 0 -46.55118 -4.4577637 -46.55118 -9.956692l0 0c0 -5.498932 20.841671 -9.956694 46.55118 -9.956694c25.70951 0 46.551178 4.457762 46.551178 9.956694l0 59.740158c0 5.498932 -20.841667 9.956688 -46.551178 9.956688c-25.70951 0 -46.55118 -4.457756 -46.55118 -9.956688l0 -59.740158" fill-rule="nonzero"></path><path fill="#eeeeee" d="m85.925896 80.335396q0 1.5 -1.109375 2.421875q-1.109375 0.90625 -2.828125 0.90625q-1.140625 0 -2.375 -0.40625q-1.234375 -0.421875 -2.21875 -1.21875l1.25 -1.78125q1.59375 1.234375 3.40625 1.234375q0.546875 0 0.859375 -0.21875q0.328125 -0.21875 0.328125 -0.578125q0 -0.359375 -0.453125 -0.65625q-0.4375 -0.3125 -1.28125 -0.578125q-0.84375 -0.265625 -1.296875 -0.453125q-0.4375 -0.1875 -1.015625 -0.546875q-1.15625 -0.734375 -1.15625 -2.140625q0 -1.421875 1.140625 -2.3125q1.140625 -0.890625 2.9375 -0.890625q1.8125 0 3.625 1.21875l-1.0625 1.890625q-1.34375 -0.90625 -2.671875 -0.90625q-1.3125 0 -1.3125 0.71875q0 0.40625 0.421875 0.640625q0.421875 0.21875 1.390625 0.53125q0.96875 0.296875 1.375 0.453125q0.40625 0.15625 0.984375 0.5q1.0625 0.65625 1.0625 2.171875zm5.404373 -5.0l0 4.578125q0 0.59375 0.296875 0.921875q0.3125 0.328125 0.734375 0.328125q0.796875 0 1.34375 -0.71875l1.0625 2.0q-1.328125 1.21875 -2.8125 1.21875q-1.46875 0 -2.484375 -0.96875q-1.015625 -0.96875 -1.015625 -2.640625l0 -4.71875l-1.1875 0l0 -2.046875l1.1875 0l0 -3.0625l2.875 0l0 3.0625l2.46875 0l0 2.046875l-2.46875 0zm13.4900055 8.171875l-2.671875 0l0 -1.234375q-1.109375 1.390625 -2.734375 1.390625q-1.625 0 -2.734375 -0.9375q-1.09375 -0.953125 -1.09375 -2.515625q0 -1.5625 1.140625 -2.34375q1.140625 -0.78125 3.109375 -0.78125l2.140625 0l0 -0.0625q0 -1.625 -1.734375 -1.625q-0.734375 0 -1.5625 0.296875q-0.828125 0.28125 -1.40625 0.71875l-1.265625 -1.84375q2.015625 -1.453125 4.59375 -1.453125q1.859375 0 3.03125 0.9375q1.1875 0.921875 1.1875 2.9375l0 6.515625zm-2.875 -3.890625l0 -0.5l-1.78125 0q-1.703125 0 -1.703125 1.0625q0 0.546875 0.40625 0.84375q0.40625 0.296875 1.15625 0.296875q0.765625 0 1.34375 -0.453125q0.578125 -0.46875 0.578125 -1.25zm8.675568 -4.28125l0 4.578125q0 0.59375 0.296875 0.921875q0.3125 0.328125 0.734375 0.328125q0.796875 0 1.34375 -0.71875l1.0625 2.0q-1.328125 1.21875 -2.8125 1.21875q-1.46875 0 -2.484375 -0.96875q-1.015625 -0.96875 -1.015625 -2.640625l0 -4.71875l-1.1875 0l0 -2.046875l1.1875 0l0 -3.0625l2.875 0l0 3.0625l2.46875 0l0 2.046875l-2.46875 0zm13.661888 6.6875q-1.734375 1.640625 -4.0625 1.640625q-2.3281326 0 -3.8437576 -1.4375q-1.515625 -1.4375 -1.515625 -3.84375q0 -2.421875 1.546875 -3.84375q1.546875 -1.421875 3.6562576 -1.421875q2.109375 0 3.578125 1.28125q1.46875 1.265625 1.46875 3.484375l0 1.515625l-7.4375076 0q0.125 0.84375 0.859375 1.375q0.7500076 0.53125 1.6875076 0.53125q1.5 0 2.46875 -1.015625l1.59375 1.734375zm-2.046875 -4.65625q-0.09375 -0.90625 -0.6875 -1.390625q-0.59375 -0.5 -1.4375 -0.5q-0.84375 0 -1.5468826 0.515625q-0.703125 0.5 -0.8125 1.375l4.4843826 0z" fill-rule="nonzero"></path><path fill="#333333" d="m35.03937 145.58005l132.40945 0l0 48.62993l-132.40945 0z" fill-rule="nonzero"></path><path fill="#eeeeee" d="m62.508133 164.56752q2.984375 0 4.578125 1.46875q1.609375 1.46875 1.609375 4.078125q0 2.59375 -1.5625 4.125q-1.546875 1.515625 -4.75 1.515625l-3.828125 0l0 -11.1875l3.953125 0zm0.125 8.984375q1.71875 0 2.640625 -0.859375q0.921875 -0.875 0.921875 -2.515625q0 -1.65625 -0.921875 -2.546875q-0.921875 -0.890625 -2.828125 -0.890625l-1.390625 0l0 6.8125l1.578125 0zm15.304031 2.203125l-2.265625 0l0 -1.046875q-0.921875 1.171875 -2.296875 1.171875q-1.359375 0 -2.296875 -0.78125q-0.921875 -0.796875 -0.921875 -2.109375q0 -1.328125 0.953125 -1.984375q0.96875 -0.65625 2.625 -0.65625l1.796875 0l0 -0.046875q0 -1.375 -1.453125 -1.375q-0.625 0 -1.328125 0.25q-0.6875 0.234375 -1.171875 0.609375l-1.0625 -1.546875q1.6875 -1.234375 3.859375 -1.234375q1.578125 0 2.5625 0.78125q1.0 0.78125 1.0 2.484375l0 5.484375zm-2.421875 -3.28125l0 -0.421875l-1.5 0q-1.4375 0 -1.4375 0.90625q0 0.453125 0.34375 0.703125q0.34375 0.25 0.984375 0.25q0.640625 0 1.125 -0.390625q0.484375 -0.390625 0.484375 -1.046875zm11.082138 0.609375q0 1.265625 -0.9375 2.03125q-0.921875 0.765625 -2.375 0.765625q-0.953125 0 -2.0 -0.34375q-1.03125 -0.34375 -1.859375 -1.015625l1.046875 -1.5q1.34375 1.03125 2.875 1.03125q0.453125 0 0.71875 -0.171875q0.28125 -0.1875 0.28125 -0.484375q0 -0.3125 -0.375 -0.5625q-0.375 -0.265625 -1.09375 -0.484375q-0.703125 -0.21875 -1.078125 -0.375q-0.375 -0.171875 -0.859375 -0.46875q-0.984375 -0.609375 -0.984375 -1.796875q0 -1.203125 0.953125 -1.953125q0.96875 -0.75 2.484375 -0.75q1.53125 0 3.046875 1.015625l-0.890625 1.609375q-1.125 -0.765625 -2.234375 -0.765625q-1.109375 0 -1.109375 0.609375q0 0.328125 0.34375 0.53125q0.359375 0.1875 1.171875 0.4375q0.8125 0.25 1.15625 0.390625q0.34375 0.140625 0.828125 0.421875q0.890625 0.546875 0.890625 1.828125zm4.2418976 -1.96875l0 4.640625l-2.390625 0l0 -11.875l2.390625 0l0 4.234375q1.09375 -1.109375 2.4375 -1.109375q1.359375 0 2.28125 0.96875q0.9375 0.953125 0.9375 2.546875l0 5.234375l-2.40625 0l0 -4.703125q0 -1.984375 -1.453125 -1.984375q-0.71875 0 -1.265625 0.53125q-0.53125 0.515625 -0.53125 1.515625zm12.786514 -4.109375q1.5625 0 2.734375 1.234375q1.171875 1.21875 1.171875 3.140625q0 1.90625 -1.203125 3.203125q-1.203125 1.296875 -2.734375 1.296875q-1.515625 0 -2.53125 -1.265625l0 1.140625l-2.390625 0l0 -11.875l2.390625 0l0 4.234375q1.0 -1.109375 2.5625 -1.109375zm-2.59375 4.453125q0 1.046875 0.578125 1.71875q0.59375 0.65625 1.421875 0.65625q0.84375 0 1.453125 -0.65625q0.625 -0.671875 0.625 -1.703125q0 -1.046875 -0.609375 -1.75q-0.59375 -0.703125 -1.453125 -0.703125q-0.84375 0 -1.4375 0.703125q-0.578125 0.6875 -0.578125 1.734375zm10.218521 0q0 1.046875 0.59375 1.71875q0.59375 0.65625 1.53125 0.65625q0.9375 0 1.53125 -0.65625q0.609375 -0.671875 0.609375 -1.71875q0 -1.0625 -0.609375 -1.734375q-0.59375 -0.671875 -1.53125 -0.671875q-0.9375 0 -1.53125 0.671875q-0.59375 0.671875 -0.59375 1.734375zm6.6875 0q0 1.859375 -1.296875 3.140625q-1.296875 1.28125 -3.265625 1.28125q-1.953125 0 -3.25 -1.28125q-1.296875 -1.28125 -1.296875 -3.140625q0 -1.875 1.296875 -3.15625q1.296875 -1.296875 3.25 -1.296875q1.96875 0 3.265625 1.296875q1.296875 1.28125 1.296875 3.15625zm9.087143 4.296875l-2.265625 0l0 -1.046875q-0.921875 1.171875 -2.296875 1.171875q-1.359375 0 -2.296875 -0.78125q-0.921875 -0.796875 -0.921875 -2.109375q0 -1.328125 0.953125 -1.984375q0.96875 -0.65625 2.625 -0.65625l1.796875 0l0 -0.046875q0 -1.375 -1.453125 -1.375q-0.625 0 -1.328125 0.25q-0.6875 0.234375 -1.171875 0.609375l-1.0625 -1.546875q1.6875 -1.234375 3.859375 -1.234375q1.578125 0 2.5625 0.78125q1.0 0.78125 1.0 2.484375l0 5.484375zm-2.421875 -3.28125l0 -0.421875l-1.5 0q-1.4375 0 -1.4375 0.90625q0 0.453125 0.34375 0.703125q0.34375 0.25 0.984375 0.25q0.640625 0 1.125 -0.390625q0.484375 -0.390625 0.484375 -1.046875zm9.129013 -3.21875q-1.0625 0 -1.59375 0.765625q-0.53125 0.765625 -0.53125 2.0l0 3.734375l-2.390625 0l0 -8.609375l2.390625 0l0 1.140625q0.46875 -0.53125 1.15625 -0.890625q0.703125 -0.375 1.421875 -0.390625l0.015625 2.25l-0.46875 0zm5.4978943 6.625q-1.515625 0 -2.71875 -1.296875q-1.203125 -1.296875 -1.203125 -3.203125q0 -1.921875 1.15625 -3.140625q1.171875 -1.234375 2.734375 -1.234375q1.578125 0 2.578125 1.109375l0 -4.234375l2.390625 0l0 11.875l-2.390625 0l0 -1.140625q-1.015625 1.265625 -2.546875 1.265625zm-1.5 -4.40625q0 1.03125 0.609375 1.703125q0.625 0.65625 1.453125 0.65625q0.84375 0 1.421875 -0.65625q0.59375 -0.671875 0.59375 -1.71875q0 -1.046875 -0.59375 -1.734375q-0.578125 -0.703125 -1.4375 -0.703125q-0.84375 0 -1.453125 0.703125q-0.59375 0.703125 -0.59375 1.75z" fill-rule="nonzero"></path><path fill="#333333" d="m35.03937 228.35432l132.40945 0l0 48.62993l-132.40945 0z" fill-rule="nonzero"></path><path fill="#eeeeee" d="m64.82775 258.5293l-1.046875 -2.421875l-4.6875 0l-1.03125 2.421875l-2.65625 0l4.828125 -11.1875l2.421875 0l4.828125 11.1875l-2.65625 0zm-3.375 -7.859375l-1.40625 3.25l2.796875 0l-1.390625 -3.25zm11.607529 1.359375q-1.0625 0 -1.59375 0.765625q-0.53125 0.765625 -0.53125 2.0l0 3.734375l-2.390625 0l0 -8.609375l2.390625 0l0 1.140625q0.46875 -0.53125 1.15625 -0.890625q0.703125 -0.375 1.421875 -0.390625l0.015625 2.25l-0.46875 0zm4.9197693 -0.375l0 3.84375q0 0.5 0.25 0.78125q0.265625 0.28125 0.609375 0.28125q0.671875 0 1.140625 -0.609375l0.890625 1.6875q-1.109375 1.015625 -2.359375 1.015625q-1.234375 0 -2.09375 -0.8125q-0.859375 -0.8125 -0.859375 -2.21875l0 -3.96875l-1.0 0l0 -1.734375l1.0 0l0 -2.578125l2.421875 0l0 2.578125l2.078125 0l0 1.734375l-2.078125 0zm6.5712585 6.875l-2.390625 0l0 -8.609375l2.390625 0l0 8.609375zm-2.203125 -9.703125q-0.40625 -0.40625 -0.40625 -1.0q0 -0.59375 0.40625 -1.0q0.421875 -0.40625 1.0 -0.40625q0.59375 0 1.0 0.40625q0.421875 0.40625 0.421875 1.0q0 0.59375 -0.421875 1.0q-0.40625 0.40625 -1.0 0.40625q-0.578125 0 -1.0 -0.40625zm8.609512 7.703125q1.203125 0 2.15625 -1.203125l1.421875 1.609375q-1.65625 1.71875 -3.59375 1.71875q-1.9375 0 -3.28125 -1.21875q-1.328125 -1.21875 -1.328125 -3.1875q0 -1.984375 1.34375 -3.21875q1.359375 -1.25 3.21875 -1.25q0.921875 0 1.875 0.390625q0.953125 0.375 1.671875 1.125l-1.25 1.640625q-0.40625 -0.5 -1.015625 -0.765625q-0.59375 -0.28125 -1.1875 -0.28125q-0.9375 0 -1.625 0.625q-0.6875 0.609375 -0.6875 1.703125q0 1.09375 0.6875 1.703125q0.6875 0.609375 1.59375 0.609375zm7.5776367 2.0l-2.390625 0l0 -11.875l2.390625 0l0 11.875zm9.734505 -1.25q-1.453125 1.375 -3.421875 1.375q-1.953125 0 -3.234375 -1.203125q-1.28125 -1.203125 -1.28125 -3.234375q0 -2.046875 1.296875 -3.234375q1.3125 -1.203125 3.078125 -1.203125q1.78125 0 3.015625 1.078125q1.25 1.0625 1.25 2.9375l0 1.28125l-6.265625 0q0.109375 0.703125 0.734375 1.15625q0.625 0.4375 1.40625 0.4375q1.265625 0 2.078125 -0.84375l1.34375 1.453125zm-1.734375 -3.921875q-0.078125 -0.765625 -0.578125 -1.171875q-0.484375 -0.421875 -1.203125 -0.421875q-0.703125 0 -1.296875 0.4375q-0.59375 0.421875 -0.6875 1.15625l3.765625 0zm10.638016 2.5q0 1.265625 -0.9375 2.03125q-0.921875 0.765625 -2.375 0.765625q-0.953125 0 -2.0 -0.34375q-1.03125 -0.34375 -1.859375 -1.015625l1.046875 -1.5q1.34375 1.03125 2.875 1.03125q0.453125 0 0.71875 -0.171875q0.28125 -0.1875 0.28125 -0.484375q0 -0.3125 -0.375 -0.5625q-0.375 -0.265625 -1.09375 -0.484375q-0.703125 -0.21875 -1.078125 -0.375q-0.375 -0.171875 -0.859375 -0.46875q-0.984375 -0.609375 -0.984375 -1.796875q0 -1.203125 0.953125 -1.953125q0.96875 -0.75 2.484375 -0.75q1.53125 0 3.046875 1.015625l-0.890625 1.609375q-1.125 -0.765625 -2.234375 -0.765625q-1.109375 0 -1.109375 0.609375q0 0.328125 0.34375 0.53125q0.359375 0.1875 1.171875 0.4375q0.8125 0.25 1.15625 0.390625q0.34375 0.140625 0.828125 0.421875q0.890625 0.546875 0.890625 1.828125zm2.0856476 2.671875l0 -11.1875l2.5 0l0 8.96875l4.765625 0l0 2.21875l-7.265625 0zm11.244263 0l-2.390625 0l0 -8.609375l2.390625 0l0 8.609375zm-2.203125 -9.703125q-0.40625 -0.40625 -0.40625 -1.0q0 -0.59375 0.40625 -1.0q0.421875 -0.40625 1.0 -0.40625q0.59375 0 1.0 0.40625q0.421875 0.40625 0.421875 1.0q0 0.59375 -0.421875 1.0q-0.40625 0.40625 -1.0 0.40625q-0.578125 0 -1.0 -0.40625zm10.953262 7.03125q0 1.265625 -0.9375 2.03125q-0.921875 0.765625 -2.375 0.765625q-0.953125 0 -2.0 -0.34375q-1.03125 -0.34375 -1.859375 -1.015625l1.046875 -1.5q1.34375 1.03125 2.875 1.03125q0.453125 0 0.71875 -0.171875q0.28125 -0.1875 0.28125 -0.484375q0 -0.3125 -0.375 -0.5625q-0.375 -0.265625 -1.09375 -0.484375q-0.703125 -0.21875 -1.078125 -0.375q-0.375 -0.171875 -0.859375 -0.46875q-0.984375 -0.609375 -0.984375 -1.796875q0 -1.203125 0.953125 -1.953125q0.96875 -0.75 2.484375 -0.75q1.53125 0 3.046875 1.015625l-0.890625 1.609375q-1.125 -0.765625 -2.234375 -0.765625q-1.109375 0 -1.109375 0.609375q0 0.328125 0.34375 0.53125q0.359375 0.1875 1.171875 0.4375q0.8125 0.25 1.15625 0.390625q0.34375 0.140625 0.828125 0.421875q0.890625 0.546875 0.890625 1.828125zm4.7106476 -4.203125l0 3.84375q0 0.5 0.25 0.78125q0.265625 0.28125 0.609375 0.28125q0.671875 0 1.140625 -0.609375l0.890625 1.6875q-1.109375 1.015625 -2.359375 1.015625q-1.234375 0 -2.09375 -0.8125q-0.859375 -0.8125 -0.859375 -2.21875l0 -3.96875l-1.0 0l0 -1.734375l1.0 0l0 -2.578125l2.421875 0l0 2.578125l2.078125 0l0 1.734375l-2.078125 0z" fill-rule="nonzero"></path><path fill="#333333" d="m35.03937 311.1286l132.40945 0l0 48.629944l-132.40945 0z" fill-rule="nonzero"></path><path fill="#eeeeee" d="m60.435745 341.30356l-1.046875 -2.421875l-4.6875 0l-1.03125 2.421875l-2.65625 0l4.828125 -11.1875l2.421875 0l4.828125 11.1875l-2.65625 0zm-3.375 -7.859375l-1.40625 3.25l2.796875 0l-1.390625 -3.25zm11.607529 1.359375q-1.0625 0 -1.59375 0.765625q-0.53125 0.765625 -0.53125 2.0l0 3.734375l-2.390625 0l0 -8.609375l2.390625 0l0 1.140625q0.46875 -0.53125 1.15625 -0.890625q0.703125 -0.375 1.421875 -0.390625l0.015625 2.25l-0.46875 0zm4.9197693 -0.375l0 3.84375q0 0.5 0.25 0.78125q0.265625 0.28125 0.609375 0.28125q0.671875 0 1.140625 -0.609375l0.890625 1.6875q-1.109375 1.015625 -2.359375 1.015625q-1.234375 0 -2.09375 -0.8125q-0.859375 -0.8125 -0.859375 -2.21875l0 -3.96875l-1.0 0l0 -1.734375l1.0 0l0 -2.578125l2.421875 0l0 2.578125l2.078125 0l0 1.734375l-2.078125 0zm6.5712585 6.875l-2.390625 0l0 -8.609375l2.390625 0l0 8.609375zm-2.203125 -9.703125q-0.40625 -0.40625 -0.40625 -1.0q0 -0.59375 0.40625 -1.0q0.421875 -0.40625 1.0 -0.40625q0.59375 0 1.0 0.40625q0.421875 0.40625 0.421875 1.0q0 0.59375 -0.421875 1.0q-0.40625 0.40625 -1.0 0.40625q-0.578125 0 -1.0 -0.40625zm8.609512 7.703125q1.203125 0 2.15625 -1.203125l1.421875 1.609375q-1.65625 1.71875 -3.59375 1.71875q-1.9375 0 -3.28125 -1.21875q-1.328125 -1.21875 -1.328125 -3.1875q0 -1.984375 1.34375 -3.21875q1.359375 -1.25 3.21875 -1.25q0.921875 0 1.875 0.390625q0.953125 0.375 1.671875 1.125l-1.25 1.640625q-0.40625 -0.5 -1.015625 -0.765625q-0.59375 -0.28125 -1.1875 -0.28125q-0.9375 0 -1.625 0.625q-0.6875 0.609375 -0.6875 1.703125q0 1.09375 0.6875 1.703125q0.6875 0.609375 1.59375 0.609375zm7.5776367 2.0l-2.390625 0l0 -11.875l2.390625 0l0 11.875zm9.734512 -1.25q-1.453125 1.375 -3.421875 1.375q-1.953125 0 -3.234375 -1.203125q-1.28125 -1.203125 -1.28125 -3.234375q0 -2.046875 1.296875 -3.234375q1.3125 -1.203125 3.078125 -1.203125q1.78125 0 3.015625 1.078125q1.25 1.0625 1.25 2.9375l0 1.28125l-6.265625 0q0.109375 0.703125 0.734375 1.15625q0.625 0.4375 1.40625 0.4375q1.265625 0 2.078125 -0.84375l1.34375 1.453125zm-1.734375 -3.921875q-0.078125 -0.765625 -0.578125 -1.171875q-0.484375 -0.421875 -1.203125 -0.421875q-0.703125 0 -1.296875 0.4375q-0.59375 0.421875 -0.6875 1.15625l3.765625 0zm10.638016 2.5q0 1.265625 -0.9375 2.03125q-0.921875 0.765625 -2.375 0.765625q-0.953125 0 -2.0 -0.34375q-1.03125 -0.34375 -1.859375 -1.015625l1.046875 -1.5q1.34375 1.03125 2.875 1.03125q0.453125 0 0.71875 -0.171875q0.28125 -0.1875 0.28125 -0.484375q0 -0.3125 -0.375 -0.5625q-0.375 -0.265625 -1.09375 -0.484375q-0.703125 -0.21875 -1.078125 -0.375q-0.375 -0.171875 -0.859375 -0.46875q-0.984375 -0.609375 -0.984375 -1.796875q0 -1.203125 0.953125 -1.953125q0.96875 -0.75 2.484375 -0.75q1.53125 0 3.046875 1.015625l-0.890625 1.609375q-1.125 -0.765625 -2.234375 -0.765625q-1.109375 0 -1.109375 0.609375q0 0.328125 0.34375 0.53125q0.359375 0.1875 1.171875 0.4375q0.8125 0.25 1.15625 0.390625q0.34375 0.140625 0.828125 0.421875q0.890625 0.546875 0.890625 1.828125zm2.0856476 -8.515625l2.5 0l0 11.1875l-2.5 0l0 -11.1875zm7.8730164 4.3125l0 3.84375q0 0.5 0.25 0.78125q0.265625 0.28125 0.609375 0.28125q0.671875 0 1.140625 -0.609375l0.890625 1.6875q-1.109375 1.015625 -2.359375 1.015625q-1.234375 0 -2.09375 -0.8125q-0.859375 -0.8125 -0.859375 -2.21875l0 -3.96875l-1.0 0l0 -1.734375l1.0 0l0 -2.578125l2.421875 0l0 2.578125l2.078125 0l0 1.734375l-2.078125 0zm11.633759 5.625q-1.453125 1.375 -3.421875 1.375q-1.953125 0 -3.234375 -1.203125q-1.28125 -1.203125 -1.28125 -3.234375q0 -2.046875 1.296875 -3.234375q1.3125 -1.203125 3.078125 -1.203125q1.78125 0 3.015625 1.078125q1.25 1.0625 1.25 2.9375l0 1.28125l-6.265625 0q0.109375 0.703125 0.734375 1.15625q0.625 0.4375 1.40625 0.4375q1.265625 0 2.078125 -0.84375l1.34375 1.453125zm-1.734375 -3.921875q-0.078125 -0.765625 -0.578125 -1.171875q-0.484375 -0.421875 -1.203125 -0.421875q-0.703125 0 -1.296875 0.4375q-0.59375 0.421875 -0.6875 1.15625l3.765625 0zm12.075516 0.53125l0 4.640625l-2.421875 0l0 -4.703125q0 -1.03125 -0.3125 -1.5q-0.3125 -0.484375 -1.015625 -0.484375q-0.6875 0 -1.234375 0.53125q-0.53125 0.515625 -0.53125 1.515625l0 4.640625l-2.390625 0l0 -8.609375l2.390625 0l0 0.984375q1.0 -1.125 2.28125 -1.125q0.8125 0 1.46875 0.484375q0.671875 0.46875 1.0 1.15625q0.5 -0.78125 1.34375 -1.203125q0.84375 -0.4375 1.6875 -0.4375q1.515625 0 2.4375 0.90625q0.9375 0.90625 0.9375 2.609375l0 5.234375l-2.421875 0l0 -4.703125q0 -1.984375 -1.453125 -1.984375q-0.71875 0 -1.25 0.53125q-0.515625 0.515625 -0.515625 1.515625z" fill-rule="nonzero"></path><path fill="#000000" fill-opacity="0.0" d="m101.244095 194.20998l0 34.141724" fill-rule="nonzero"></path><path stroke="#f1c232" stroke-width="3.0" stroke-linejoin="round" stroke-linecap="butt" d="m101.244095 194.20998l0 16.141724" fill-rule="evenodd"></path><path fill="#f1c232" stroke="#f1c232" stroke-width="3.0" stroke-linecap="butt" d="m96.288895 210.3517l4.9552 13.614304l4.9552 -13.614304z" fill-rule="evenodd"></path><path fill="#000000" fill-opacity="0.0" d="m101.244095 276.98425l0 34.141724" fill-rule="nonzero"></path><path stroke="#f1c232" stroke-width="3.0" stroke-linejoin="round" stroke-linecap="butt" d="m101.244095 276.98425l0 16.141724" fill-rule="evenodd"></path><path fill="#f1c232" stroke="#f1c232" stroke-width="3.0" stroke-linecap="butt" d="m96.288895 293.12598l4.9552 13.614288l4.9552 -13.614288z" fill-rule="evenodd"></path><path fill="#000000" fill-opacity="0.0" d="m101.244095 111.43569l0 34.14173" fill-rule="nonzero"></path><path stroke="#f1c232" stroke-width="3.0" stroke-linejoin="round" stroke-linecap="butt" d="m101.244095 111.43569l0 16.141739" fill-rule="evenodd"></path><path fill="#f1c232" stroke="#f1c232" stroke-width="3.0" stroke-linecap="butt" d="m96.288895 127.57743l4.9552 13.614296l4.9552 -13.614296z" fill-rule="evenodd"></path><path fill="#000000" fill-opacity="0.0" d="m167.44882 335.44357c12.500046 0 27.456787 -65.96063 25.000092 -131.92126c-2.4566956 -65.96063 -22.326813 -131.92126 -44.65364 -131.92126" fill-rule="nonzero"></path><path stroke="#f1c232" stroke-width="3.0" stroke-linejoin="round" stroke-linecap="butt" d="m167.44882 335.44357c12.5000305 0 27.456787 -65.96063 25.000107 -131.92126c-1.2283478 -32.980316 -6.810074 -65.96063 -14.875534 -90.69586c-4.03273 -12.367622 -8.686417 -22.673973 -13.727325 -29.888412c-0.31506348 -0.45090485 -0.6316376 -0.88973236 -0.94966125 -1.3162231l-0.079055786 -0.10424805" fill-rule="evenodd"></path><path fill="#f1c232" stroke="#f1c232" stroke-width="3.0" stroke-linecap="butt" d="m165.54726 77.38216l-14.091843 -3.3649445l8.632034 11.635757z" fill-rule="evenodd"></path></g></svg>

